<svg xmlns="http://www.w3.org/2000/svg" viewBox="0 0 200 200" width="200" height="200">
  <rect width="200" height="200" fill="white"/>
  <!-- Top-left position marker -->
  <rect x="10" y="10" width="56" height="56" rx="4" fill="#8B0000"/>
  <rect x="18" y="18" width="40" height="40" rx="2" fill="white"/>
  <rect x="26" y="26" width="24" height="24" rx="1" fill="#8B0000"/>
  <!-- Top-right position marker -->
  <rect x="134" y="10" width="56" height="56" rx="4" fill="#8B0000"/>
  <rect x="142" y="18" width="40" height="40" rx="2" fill="white"/>
  <rect x="150" y="26" width="24" height="24" rx="1" fill="#8B0000"/>
  <!-- Bottom-left position marker -->
  <rect x="10" y="134" width="56" height="56" rx="4" fill="#8B0000"/>
  <rect x="18" y="142" width="40" height="40" rx="2" fill="white"/>
  <rect x="26" y="150" width="24" height="24" rx="1" fill="#8B0000"/>
  <!-- Data modules (pattern) -->
  <rect x="74" y="10" width="8" height="8" fill="#8B0000"/>
  <rect x="90" y="10" width="8" height="8" fill="#8B0000"/>
  <rect x="106" y="10" width="8" height="8" fill="#8B0000"/>
  <rect x="122" y="10" width="8" height="8" fill="#8B0000"/>
  <rect x="74" y="26" width="8" height="8" fill="#8B0000"/>
  <rect x="106" y="26" width="8" height="8" fill="#8B0000"/>
  <rect x="74" y="42" width="8" height="8" fill="#8B0000"/>
  <rect x="90" y="42" width="8" height="8" fill="#8B0000"/>
  <rect x="122" y="42" width="8" height="8" fill="#8B0000"/>
  <rect x="74" y="58" width="8" height="8" fill="#8B0000"/>
  <rect x="106" y="58" width="8" height="8" fill="#8B0000"/>
  <rect x="74" y="74" width="8" height="8" fill="#8B0000"/>
  <rect x="90" y="74" width="8" height="8" fill="#8B0000"/>
  <rect x="106" y="74" width="8" height="8" fill="#8B0000"/>
  <rect x="122" y="74" width="8" height="8" fill="#8B0000"/>
  <rect x="10" y="74" width="8" height="8" fill="#8B0000"/>
  <rect x="26" y="74" width="8" height="8" fill="#8B0000"/>
  <rect x="42" y="74" width="8" height="8" fill="#8B0000"/>
  <rect x="58" y="74" width="8" height="8" fill="#8B0000"/>
  <rect x="138" y="74" width="8" height="8" fill="#8B0000"/>
  <rect x="154" y="74" width="8" height="8" fill="#8B0000"/>
  <rect x="170" y="74" width="8" height="8" fill="#8B0000"/>
  <rect x="10" y="90" width="8" height="8" fill="#8B0000"/>
  <rect x="42" y="90" width="8" height="8" fill="#8B0000"/>
  <rect x="74" y="90" width="8" height="8" fill="#8B0000"/>
  <rect x="106" y="90" width="8" height="8" fill="#8B0000"/>
  <rect x="138" y="90" width="8" height="8" fill="#8B0000"/>
  <rect x="170" y="90" width="8" height="8" fill="#8B0000"/>
  <rect x="26" y="106" width="8" height="8" fill="#8B0000"/>
  <rect x="58" y="106" width="8" height="8" fill="#8B0000"/>
  <rect x="90" y="106" width="8" height="8" fill="#8B0000"/>
  <rect x="122" y="106" width="8" height="8" fill="#8B0000"/>
  <rect x="154" y="106" width="8" height="8" fill="#8B0000"/>
  <rect x="10" y="122" width="8" height="8" fill="#8B0000"/>
  <rect x="42" y="122" width="8" height="8" fill="#8B0000"/>
  <rect x="74" y="122" width="8" height="8" fill="#8B0000"/>
  <rect x="106" y="122" width="8" height="8" fill="#8B0000"/>
  <rect x="138" y="122" width="8" height="8" fill="#8B0000"/>
  <rect x="170" y="122" width="8" height="8" fill="#8B0000"/>
  <rect x="74" y="138" width="8" height="8" fill="#8B0000"/>
  <rect x="90" y="138" width="8" height="8" fill="#8B0000"/>
  <rect x="122" y="138" width="8" height="8" fill="#8B0000"/>
  <rect x="154" y="138" width="8" height="8" fill="#8B0000"/>
  <rect x="170" y="138" width="8" height="8" fill="#8B0000"/>
  <rect x="74" y="154" width="8" height="8" fill="#8B0000"/>
  <rect x="106" y="154" width="8" height="8" fill="#8B0000"/>
  <rect x="138" y="154" width="8" height="8" fill="#8B0000"/>
  <rect x="74" y="170" width="8" height="8" fill="#8B0000"/>
  <rect x="90" y="170" width="8" height="8" fill="#8B0000"/>
  <rect x="106" y="170" width="8" height="8" fill="#8B0000"/>
  <rect x="122" y="170" width="8" height="8" fill="#8B0000"/>
  <rect x="154" y="170" width="8" height="8" fill="#8B0000"/>
  <rect x="170" y="170" width="8" height="8" fill="#8B0000"/>
</svg>
